<?xml version="1.0" standalone="no"?><!DOCTYPE svg PUBLIC "-//W3C//DTD SVG 1.1//EN" "http://www.w3.org/Graphics/SVG/1.1/DTD/svg11.dtd"><svg t="1746584373445" class="icon" viewBox="0 0 1024 1024" version="1.1" xmlns="http://www.w3.org/2000/svg" p-id="11139" xmlns:xlink="http://www.w3.org/1999/xlink" width="200" height="200"><path d="M568.917333 685.013333l-36.608 50.688c34.730667 30.976 77.909333 46.464 129.536 46.464 39.424-0.938667 69.461333-11.093333 90.112-30.506666 20.992-19.712 31.445333-43.178667 31.445334-70.4 0-26.581333-7.338667-48.512-22.058667-65.706667-14.677333-17.194667-39.424-30.976-74.154667-41.301333-28.757333-8.746667-49.066667-16.725333-61.013333-23.936-11.861333-7.509333-17.834667-16.597333-17.834667-27.221334 0-9.685333 4.864-17.493333 14.549334-23.466666 9.728-5.973333 22.698667-8.917333 38.954666-8.917334 11.946667 0 25.344 2.346667 40.362667 7.04 15.018667 4.053333 28.330667 10.666667 39.893333 19.712l32.853334-51.157333c-28.757333-23.168-66.944-34.730667-114.517334-34.730667-34.090667 0-62.08 8.746667-84.010666 26.282667-22.528 17.493333-33.792 39.253333-33.792 65.237333 0.341333 27.52 9.386667 48.981333 27.221333 64.298667 18.176 15.36 43.946667 27.861333 77.44 37.546667 27.861333 8.746667 46.805333 17.493333 56.789333 26.282666a41.429333 41.429333 0 0 1 14.549334 31.914667 32 32 0 0 1-14.506667 28.16c-10.026667 6.869333-24.448 10.325333-43.221333 10.325333-30.634667 0.298667-61.312-11.904-91.989334-36.608z m-235.946666 27.221334a93.013333 93.013333 0 0 1-26.282667-24.874667l-44.117333 36.138667c13.141333 22.186667 29.44 37.717333 48.810666 46.464 18.133333 8.106667 38.954667 12.202667 62.421334 12.202666 12.8 0 26.112-2.048 39.893333-6.101333 13.781333-4.053333 26.453333-10.965333 38.016-20.650667 20.352-16.256 30.976-42.88 31.914667-79.786666v-238.421334H420.266667v226.218667c0 21.589333-4.864 36.778667-14.506667 45.525333-9.728 8.448-21.930667 12.672-36.650667 12.672-14.08 0-26.112-3.114667-36.138666-9.386666zM128 256a128 128 0 0 1 128-128h512a128 128 0 0 1 128 128v512a128 128 0 0 1-128 128H256a128 128 0 0 1-128-128V256z m128-42.666667a42.666667 42.666667 0 0 0-42.666667 42.666667v512a42.666667 42.666667 0 0 0 42.666667 42.666667h512a42.666667 42.666667 0 0 0 42.666667-42.666667V256a42.666667 42.666667 0 0 0-42.666667-42.666667H256z" p-id="11140" fill="#1296db"></path></svg>