<?xml version="1.0" standalone="no"?><!DOCTYPE svg PUBLIC "-//W3C//DTD SVG 1.1//EN" "http://www.w3.org/Graphics/SVG/1.1/DTD/svg11.dtd"><svg t="1727686043303" class="icon" viewBox="0 0 1024 1024" version="1.1" xmlns="http://www.w3.org/2000/svg" p-id="10064" xmlns:xlink="http://www.w3.org/1999/xlink" width="32" height="32"><path d="M903.04 636.224h-82.304c-66.56 0-120.32 54.016-120.32 120.512v30.144H228.352a90.24 90.24 0 0 1-90.24-90.368v-39.296c0-49.92 40.32-90.368 90.24-90.368h566.976a150.528 150.528 0 0 0 150.4-150.656v-17.728c0-83.2-67.328-150.656-150.4-150.656H317.824A161.664 161.664 0 0 0 161.92 128.32 161.664 161.664 0 0 0 0.32 290.112 161.664 161.664 0 0 0 161.92 451.904c83.2 0 151.68-62.976 160.64-143.808h472.896c49.856 0 90.24 40.448 90.24 90.368v17.728a90.24 90.24 0 0 1-90.24 90.368h-567.04a150.528 150.528 0 0 0-150.4 150.656v39.296c0 83.2 67.392 150.592 150.4 150.592h472.256a120.32 120.32 0 0 0 120.128 112.64h82.368c66.56 0 120.32-53.952 120.32-120.512v-82.496a120.384 120.384 0 0 0-120.32-120.512zM161.92 391.36c-56.064 0-101.376-45.44-101.376-101.504a101.376 101.376 0 1 1 202.688 0c0 56.128-45.376 101.504-101.376 101.504z m801.28 447.872c0 33.28-26.88 60.288-60.16 60.288h-82.304a60.224 60.224 0 0 1-60.16-60.288v-82.496c0-33.28 26.88-60.224 60.16-60.224h82.368c33.216 0 60.16 27.008 60.16 60.224v82.56z" fill="#1296db" p-id="10065"></path></svg>