<?xml version="1.0" standalone="no"?><!DOCTYPE svg PUBLIC "-//W3C//DTD SVG 1.1//EN" "http://www.w3.org/Graphics/SVG/1.1/DTD/svg11.dtd"><svg t="1746584362342" class="icon" viewBox="0 0 1024 1024" version="1.1" xmlns="http://www.w3.org/2000/svg" p-id="10090" xmlns:xlink="http://www.w3.org/1999/xlink" width="200" height="200"><path d="M1024 381.838222v543.402667c0 54.556444-44.202667 98.759111-98.759111 98.759111H98.759111A98.759111 98.759111 0 0 1 0 925.240889V381.838222h1024zM132.380444 455.623111h-53.475555v341.333333h53.475555v-84.878222l24.348445-22.983111 84.878222 107.861333H310.044444l-116.736-142.051555 107.406223-100.352H231.765333l-99.384889 96.142222v-195.128889zM774.257778 558.876444h-56.888889l87.608889 237.226667h52.337778l87.608888-237.226667h-56.888888l-56.888889 172.088889-56.888889-172.088889z m-253.724445 10.524445v52.053333H397.767111v64.739556h122.88l-0.056889 53.873778 104.732445-84.195556-104.732445-86.471111zM925.240889 0C979.854222 0 1024 44.202667 1024 98.759111V310.613333H0V98.759111C0 44.145778 44.202667 0 98.759111 0h826.481778z m-57.059556 132.949333H153.884444a41.073778 41.073778 0 0 0-5.575111 81.749334l5.575111 0.398222h714.296889a41.073778 41.073778 0 0 0 0-82.147556z" fill="#1296db" p-id="10091"></path></svg>