<?xml version="1.0" standalone="no"?><!DOCTYPE svg PUBLIC "-//W3C//DTD SVG 1.1//EN" "http://www.w3.org/Graphics/SVG/1.1/DTD/svg11.dtd"><svg t="1746584270577" class="icon" viewBox="0 0 1024 1024" version="1.1" xmlns="http://www.w3.org/2000/svg" p-id="9023" xmlns:xlink="http://www.w3.org/1999/xlink" width="200" height="200"><path d="M1024 657.408c0-81.92-56.832-151.04-133.12-169.472C887.808 359.424 782.336 256 653.312 256c-75.776 0-143.36 35.328-186.88 90.624-24.576-31.744-62.464-51.712-105.472-51.712-73.728 0-133.632 59.904-133.632 133.632 0 6.656 0.512 12.8 1.536 18.944-11.264-2.048-22.528-3.072-34.816-3.072C87.04 444.416 0 530.944 0 637.952S86.528 832 193.536 832H849.92c96.256 0 174.08-78.336 174.08-174.592z m-653.312 47.104h-34.816v-75.264h-68.096v75.264H232.96V532.48h34.816v67.584h68.096V532.48h34.816v172.032z m160.256-142.848h-51.2v143.36H445.44v-143.36h-51.2V532.48h136.704v29.184z m146.944 0h-51.2v143.36h-34.816v-143.36h-51.2V532.48h136.704v29.184z m148.992 50.688c-4.096 7.168-8.704 12.8-14.848 16.896s-11.776 6.656-17.92 8.192c-8.192 1.536-20.48 2.56-35.84 2.56h-22.528v65.024h-34.816V532.48h55.808c20.992 0 34.816 1.024 41.472 2.56 9.728 2.56 17.92 8.192 24.576 16.896 6.656 8.704 10.24 19.968 10.24 33.792-0.512 10.24-2.56 19.456-6.144 26.624z m-49.664-49.664c-4.096-1.024-12.288-1.024-25.088-1.024h-16.896v48.64h18.944c13.824 0 23.04-1.024 27.648-2.56s8.192-4.608 10.752-8.704 4.096-8.192 4.096-13.312c0-6.144-2.048-11.264-5.632-15.36-3.584-4.096-8.192-6.656-13.824-7.68" p-id="9024" fill="#1296db"></path></svg>