<?xml version="1.0" standalone="no"?><!DOCTYPE svg PUBLIC "-//W3C//DTD SVG 1.1//EN" "http://www.w3.org/Graphics/SVG/1.1/DTD/svg11.dtd"><svg t="1727684820897" class="icon" viewBox="0 0 1024 1024" version="1.1" xmlns="http://www.w3.org/2000/svg" p-id="4287" width="32" height="32" xmlns:xlink="http://www.w3.org/1999/xlink"><path d="M829.44 0H128C56.32 0 0 56.32 0 128v768C0 967.68 56.32 1024 128 1024h768c71.68 0 128-56.32 128-128V194.56L829.44 0zM563.2 102.4v204.8H358.4V102.4h204.8z m358.4 793.6c0 15.36-10.24 25.6-25.6 25.6h-768c-15.36 0-25.6-10.24-25.6-25.6v-768c0-15.36 10.24-25.6 25.6-25.6H256v204.8c0 56.32 46.08 102.4 102.4 102.4h204.8c56.32 0 102.4-46.08 102.4-102.4V102.4h122.88L921.6 235.52v660.48z" fill="#1296db" p-id="4288"></path></svg>