<?xml version="1.0" standalone="no"?><!DOCTYPE svg PUBLIC "-//W3C//DTD SVG 1.1//EN" "http://www.w3.org/Graphics/SVG/1.1/DTD/svg11.dtd"><svg t="1746602431360" class="icon" viewBox="0 0 1024 1024" version="1.1" xmlns="http://www.w3.org/2000/svg" p-id="4631" xmlns:xlink="http://www.w3.org/1999/xlink" width="200" height="200"><path d="M334.933333 313.6v64H251.733333a53.333333 53.333333 0 0 0-53.077333 47.872l-0.256 5.461333v341.333334c0 29.44 23.893333 53.333333 53.333333 53.333333h341.333334c29.44 0 53.333333-23.893333 53.333333-53.333333v-83.2h64v83.2a117.333333 117.333333 0 0 1-110.165333 117.12l-7.168 0.213333h-341.333334a117.333333 117.333333 0 0 1-117.333333-117.333333v-341.333334A117.333333 117.333333 0 0 1 251.733333 313.6h83.2z" p-id="4632" fill="#8a8a8a"></path><path d="M772.266667 134.4h-384A117.333333 117.333333 0 0 0 270.933333 251.733333v384a117.333333 117.333333 0 0 0 117.333334 117.333334h384a117.333333 117.333333 0 0 0 117.333333-117.333334v-384A117.333333 117.333333 0 0 0 772.266667 134.4z m-384 64h384c29.44 0 53.333333 23.893333 53.333333 53.333333v384c0 29.44-23.893333 53.333333-53.333333 53.333334h-384c-29.44 0-53.333333-23.893333-53.333334-53.333334v-384c0-29.44 23.893333-53.333333 53.333334-53.333333z" p-id="4633" fill="#8a8a8a"></path><path d="M857.6 355.2v64h-554.666667v-64z" p-id="4634" fill="#8a8a8a"></path><path d="M430.933333 277.333333m-42.666666 0a42.666667 42.666667 0 1 0 85.333333 0 42.666667 42.666667 0 1 0-85.333333 0Z" p-id="4635" fill="#8a8a8a"></path><path d="M558.933333 277.333333m-42.666666 0a42.666667 42.666667 0 1 0 85.333333 0 42.666667 42.666667 0 1 0-85.333333 0Z" p-id="4636" fill="#8a8a8a"></path></svg>